# xmcd CD database file
#
# Track frame offsets:
#	150
#	22475
#	44730
#	60992
#	87337
#	112247
#	136537
#	155045
#	177145
#	194727
#	210315
#
# Disc length: 3186 seconds
#
# Revision: 0
# Processed by: cddbd v1.4PL0 Copyright (c) Steve Scherf et al.
# Submitted via: CDex 1.40Release
#
DISCID=a00c700b
DTITLE=Louisiana Red - The Blues Spectrum of Louisiana Red
DYEAR=1998
DGENRE=Blues
TTITLE0=Sweet Leg Girl
TTITLE1=Vivienne
TTITLE2=Soon One Morning
TTITLE3=The Women That I've Known
TTITLE4=The Best Place
TTITLE5=Standing Like A Stone
TTITLE6=Love Me Mama
TTITLE7=I Wish I Could Lead My Life Again
TTITLE8=Lamplight Baby
TTITLE9=After Awhile
TTITLE10=Hello, Mean Old World
EXTD=YEAR: 1998 ID3G: 0
EXTT0=
EXTT1=
EXTT2=
EXTT3=
EXTT4=
EXTT5=
EXTT6=
EXTT7=
EXTT8=
EXTT9=
EXTT10=
PLAYORDER=
